<svg xmlns="http://www.w3.org/2000/svg" viewBox="0 0 96 96" aria-hidden="true" focusable="false">
  <path d="M48 46v19h2c6.132.07 12.227-.95 18-3.017V46H48zm20-21H48v19h20V25zm2 21v15.182A35.1 35.1 0 0087.136 46H70z"></path>
  <path d="M70 72a8.007 8.007 0 00-7.931 7H33.931A8.007 8.007 0 0027 72.069V65h19V46H31v-2h15V25H26.888C26.483 15.6 24.616 4 16 4c-3.836 0-7.566 3.074-9.281 7.649C4.031 18.821 4 28.588 4 29h2c0-.1.033-9.821 2.592-16.648C9.994 8.612 13.04 6 16 6c9 0 9 17.561 9 26v40.069A8 8 0 1033.931 81h28.138A8 8 0 1070 72zm0-47v19h18.176A41.5 41.5 0 0092 26v-1H70z"></path>
</svg>