<svg xmlns="http://www.w3.org/2000/svg" viewBox="0 0 96 96" aria-hidden="true" focusable="false">
  <path d="M58.14 37.22l-9.67-13.7 39.71-1.85-6.39 15.55H58.14zm-11.4 19.11h-18.2v1.82h18.2v-1.82zm0 5.46h-18.2v1.83h18.2v-1.83zm-6.62 5.47H28.54v1.82h11.58v-1.82zm6.05-43.85l-2-2.58h-14.6A6.48 6.48 0 0027 26v4.31h-5.57V26a6.48 6.48 0 00-2.6-5.18H4l11.83 16.4h40.08l-9.74-13.81zm33.69 38.42l1.48.23V90H17.63l-.34-18.77v-2l-.12-6.58v-1.82L17 54.19v-2L16.72 39h40L56 53.22l-.11 2-.3 5.63-.1 1.82-.29 5.35-.15 1.98-.88 16.33 1.82.1.84-15.67.11-1.94.32-6.11.1-1.82.35-6.43.1-2L58.53 39h22.81v.08l-.26 1.69-.29 1.88a4.8 4.8 0 01-4.22 4c-.17.01-.34.01-.51 0a6.13 6.13 0 01-.74 0l-1.87-.29-2-.31-.3 2-.24 1.56-.31 2 2 .3 1.87.29a4.8 4.8 0 014 5.46l-.29 1.88-.3 2 1.98.29zm-29.47-10H24.9v20.89h25.49V51.83zM23.43 26v2.31H25V26a8.49 8.49 0 018.48-8.48h2.32V16h-2.35A8.5 8.5 0 0125 7.5V5.19h-1.57V7.5A8.5 8.5 0 0115 16h-2.37v1.54H15A8.49 8.49 0 0123.43 26zM90 51a6.81 6.81 0 01-5.69-7.75l.29-1.87-1.56-.24-.28 1.86a6.79 6.79 0 01-6 5.72c-.587.08-1.183.08-1.77 0l-1.88-.29-.24 1.56 1.88.29A6.81 6.81 0 0180.46 58l-.29 1.87 1.56.24.27-1.89a6.81 6.81 0 016-5.72 7 7 0 011.77 0l1.88.29.24-1.56L90 51z"></path>
</svg>