<svg xmlns="http://www.w3.org/2000/svg" viewBox="0 0 96 96" aria-hidden="true" focusable="false">
  <g clip-path="url(#Icon=Payment,_Style=Fill,_Size=Base__clip0)">
    <path d="M76.247 42.453c-.554 0-1.108.045-1.655.134-3.744.609-6.577 3.158-6.186 5.566s3.888 3.924 7.632 3.318c3.744-.606 6.578-3.159 6.187-5.566-.333-2.047-2.911-3.452-5.978-3.452zm20.104 28.002l-.794-4.88L6.732 80.077l.786 4.831a3.99 3.99 0 004.59 3.306l80.936-13.169a4 4 0 003.307-4.59zm-2.236-13.73L5.29 71.227l1.123 6.876 88.823-14.502-1.122-6.876z"></path>
    <path d="M88.481 22.091a4 4 0 00-4.59-3.306l-22.53 3.667c.092.679.138 1.363.139 2.048C61.5 34.477 53.547 42 43 42c-9.127 0-16.3-5.639-18.07-13.621L2.956 31.955a3.999 3.999 0 00-3.307 4.59l5.322 32.708L93.8 54.752l-5.319-32.661zM38.239 55.229c-1-.93-1.553-1.408-2.325-1.282-.877.143-1.251.979-1.79 2.333-.574 1.441-1.289 3.235-3.329 3.566-2.079.342-3.142-1.619-4-3.19-1.015-1.858-1.726-2.97-3.047-2.755-.733.12-1.7 1.777-2.473 3.108-1.221 2.1-2.806 4.819-5.21 4.82a3.967 3.967 0 01-1.848-.5 4.88 4.88 0 01-2.639-3.908c-.326-2.958 1.494-6.585 4.638-9.241l1.291 1.527c-2.608 2.2-4.191 5.216-3.94 7.495a2.862 2.862 0 001.578 2.355c1.538.8 2.559-.387 4.4-3.554 1.139-1.957 2.215-3.8 3.88-4.076 2.824-.457 4.149 1.986 5.124 3.771.776 1.421 1.3 2.279 1.922 2.175.878-.143 1.253-.979 1.792-2.333.574-1.441 1.288-3.234 3.327-3.566 1.784-.294 2.964.818 4.01 1.793 1.231 1.147 2.4 2.229 4.689 1.857l.322 1.974c-3.266.536-5.06-1.146-6.372-2.369zm38.12-1.784c-.654.107-1.316.161-1.979.162-4.065 0-7.451-2.079-7.948-5.132-.575-3.538 2.941-7.064 7.84-7.861 4.899-.797 9.352 1.432 9.928 4.97.576 3.538-2.943 7.063-7.841 7.861z"></path>
    <path d="M43 40c9.113 0 16.5-6.387 16.5-15.5S50.113 8 41 8s-14.5 7.387-14.5 16.5S33.887 40 43 40zm-8.293-17.707L40 27.586l11.293-11.293 1.414 1.414L40 30.414l-6.707-6.707 1.414-1.414zM23 21H13v2h10v-2zm-7.594-8.914l-.812 1.828 9 4 .812-1.828-9-4zm54.279.964l-9 3 .632 1.898 9-3-.632-1.897zM65.35 5.24l-7.001 6.001 1.301 1.518 7-6-1.3-1.518z"></path>
  </g>
  <defs>
    <clipPath id="Icon=Payment,_Style=Fill,_Size=Base__clip0">
      <path fill="#fff" d="M0 0h96v96H0z"></path>
    </clipPath>
  </defs>
</svg>